{"title":"Strawberry.Shortcake.Puttin.On.The.Glitz 2011 DVDRip Xvid LKRG","uid":6404794,"size":949877379,"categoryP":"video","categoryS":"movies","magnet":"?xt=urn:btih:a7c2a3036f63dbec750d63ff1227272117f97e40&amp;dn=Strawberry.Shortcake.Puttin.On.The.Glitz+2011+DVDRip+Xvid+LKRG&amp;tr=udp%3A%2F%2Ftracker.openbittorrent.com%3A80&amp;tr=udp%3A%2F%2Fopen.demonii.com%3A1337&amp;tr=udp%3A%2F%2Ftracker.coppersurfer.tk%3A6969&amp;tr=udp%3A%2F%2Fexodus.desync.com%3A6969","seeders":0,"leechers":2,"uploader":".BONE.","files":3,"time":1305776373,"description":"\nFabulous new fashions, sparkling musical &quot;Glamicures&quot; and delightful new &quot;Do's&quot; have Strawberry and her friends &quot;Puttin' on the Glitz&quot;! But, all that dazzles quickly unravels with misunderstanding... until the girls find creative and kind ways to be honest with their feelings... and with their friends. It's heart-to-heart makeover magic... as the girls learn that nothing looks as beautiful as friendship feels.\n\nFormat;AVI\n\nFile Size:905mb\n\nVideo\nID : 0\nFormat : MPEG-4 Visual\nFormat profile : Advanced Simple@L5\nFormat settings, BVOP : Yes\nFormat settings, QPel : No\nFormat settings, GMC : No warppoints\nFormat settings, Matrix : Custom\nCodec ID : XVID\nCodec ID/Hint : XviD\nDuration : 1h 6mn\nBit rate : 1 716 Kbps\nWidth : 700 pixels\nHeight : 384 pixels\nDisplay aspect ratio : 16:9\nFrame rate : 29.970 fps\nColor space : YUV\nChroma subsampling : 4:2:0\nBit depth : 8 bits\nScan type : Progressive\nBits/(Pixel*Frame) : 0.213\nStream size : 812 MiB (90%)\nWriting library : XviD 1.2.1 (UTC 2008-12-04)\n\nAudio\nID : 1\nFormat : AC-3\nFormat/Info : Audio Coding 3\nFormat profile : Dolby Digital\nMode extension : CM (complete main)\nCodec ID : 2000\nDuration : 1h 6mn\nBit rate mode : Constant\nBit rate : 192 Kbps\nChannel(s) : 2 channels\nChannel positions : Front: L R\nSampling rate : 48.0 KHz\nBit depth : 16 bits\nStream size : 90.8 MiB (10%)\nAlignment : Aligned on interleaves\nInterleave, duration : 480 ms (14.38 video frames)\nInterleave, preload duration : 960 ms\n\n &lt;a href=&quot;\nhttp://www.amazon.com/Strawberry-Shortcake-Puttin-Glitz/dp/B004JIGEFY/:&quot; rel=&quot;nofollow&quot; target=&quot;_NEW&quot;&gt;\nhttp://www.amazon.com/Strawberry-Shortcake-Puttin-Glitz/dp/B004JIGEFY/:&lt;/a&gt;\n\n\n\nDuration:1:06\n\nRelease Date:2011\n\nLanguage:English\n &lt;a href=&quot;\nhttp://www.grinshare.com/img/6UIMR9.png&quot; rel=&quot;nofollow&quot; target=&quot;_NEW&quot;&gt;\nhttp://www.grinshare.com/img/6UIMR9.png&lt;/a&gt;\n &lt;a href=&quot;\nhttp://www.grinshare.com/img/4CYGO0.png&quot; rel=&quot;nofollow&quot; target=&quot;_NEW&quot;&gt;\nhttp://www.grinshare.com/img/4CYGO0.png&lt;/a&gt;\n &lt;a href=&quot;\nhttp://www.grinshare.com/img/IMSINE.png&quot; rel=&quot;nofollow&quot; target=&quot;_NEW&quot;&gt;\nhttp://www.grinshare.com/img/IMSINE.png&lt;/a&gt;\n &lt;a href=&quot;\nhttp://www.grinshare.com/img/Q83YG7.png&quot; rel=&quot;nofollow&quot; target=&quot;_NEW&quot;&gt;\nhttp://www.grinshare.com/img/Q83YG7.png&lt;/a&gt;\n &lt;a href=&quot;\nhttp://www.grinshare.com/img/41J4BQ.png&quot; rel=&quot;nofollow&quot; target=&quot;_NEW&quot;&gt;\nhttp://www.grinshare.com/img/41J4BQ.png&lt;/a&gt;","torrent":{"xt":"urn:btih:a7c2a3036f63dbec750d63ff1227272117f97e40","amp;dn":"Strawberry.Shortcake.Puttin.On.The.Glitz+2011+DVDRip+Xvid+LKRG","amp;tr":["udp%3A%2F%2Ftracker.openbittorrent.com%3A80","udp%3A%2F%2Fopen.demonii.com%3A1337","udp%3A%2F%2Ftracker.coppersurfer.tk%3A6969","udp%3A%2F%2Fexodus.desync.com%3A6969"],"infoHash":"a7c2a3036f63dbec750d63ff1227272117f97e40","infoHashBuffer":{"type":"Buffer","data":[167,194,163,3,111,99,219,236,117,13,99,255,18,39,39,33,23,249,126,64]},"announce":[],"urlList":[]}}